<?xml version="1.0" encoding="UTF-8"?>
<svg width="66px" height="66px" viewBox="0 0 66 66" version="1.1" xmlns="http://www.w3.org/2000/svg" xmlns:xlink="http://www.w3.org/1999/xlink">
    <!-- Generator: Sketch 53.1 (72631) - https://sketchapp.com -->
    <title>LOGOB</title>
    <desc>Created with Sketch.</desc>
    <defs>
        <circle id="path-1" cx="32.5" cy="32.5" r="32.5"></circle>
        <filter x="-3.1%" y="-1.5%" width="106.2%" height="106.2%" filterUnits="objectBoundingBox" id="filter-2">
            <feOffset dx="0" dy="1" in="SourceAlpha" result="shadowOffsetOuter1"></feOffset>
            <feGaussianBlur stdDeviation="0.5" in="shadowOffsetOuter1" result="shadowBlurOuter1"></feGaussianBlur>
            <feColorMatrix values="0 0 0 0 0.824388587   0 0 0 0 0.824388587   0 0 0 0 0.824388587  0 0 0 0.5 0" type="matrix" in="shadowBlurOuter1"></feColorMatrix>
        </filter>
    </defs>
    <g id="LOGOB" stroke="none" stroke-width="1" fill="none" fill-rule="evenodd">
        <g id="Group-2">
            <g id="Oval">
                <use fill="black" fill-opacity="1" filter="url(#filter-2)" xlink:href="#path-1"></use>
                <use fill="#FFFFFF" fill-rule="evenodd" xlink:href="#path-1"></use>
            </g>
            <g id="Group" transform="translate(9.053571, 5.803571)" fill-rule="nonzero">
                <path d="M30.0827624,9.7264159 L28.8622972,10.0625958 C30.0831575,14.6860697 30.7535714,20.5785597 30.7535714,26.6964286 C30.7535714,40.575512 27.2929754,51.8630952 23.4464286,51.8630952 C19.5998817,51.8630952 16.1392857,40.575512 16.1392857,26.6964286 C16.1392857,12.8173451 19.5998817,1.5297619 23.4464286,1.5297619 C24.8967518,1.5297619 26.3891614,3.27461603 27.6268304,6.2971546 L28.8013621,5.82373116 C27.3044809,2.1584947 25.4453621,0.25 23.4464286,0.25 C18.4163586,0.25 14.875,12.2745567 14.875,26.6964286 C14.875,41.1183004 18.4163586,53.1428571 23.4464286,53.1428571 C28.4764986,53.1428571 32.0178571,41.1183004 32.0178571,26.6964286 C32.0178571,20.4672888 31.3307736,14.4526066 30.0827624,9.7264159 Z" id="Path" stroke="#FFFFFF" stroke-width="0.5" fill="#353535"></path>
                <path d="M5.75613091,29.1455913 L6.65156424,30.0536847 C9.99935741,26.7463663 14.6510089,23.2946952 19.7815025,20.3127698 C25.6575148,16.8963295 31.5822883,14.4013065 36.4700896,13.2869422 C40.9725231,12.2591531 44.1915665,12.5294707 45.0969479,14.1086758 C46.001896,15.6861524 44.6270143,18.6246959 41.4908936,22.0395563 C38.0894208,25.7449716 32.9822651,29.6637866 27.1053034,33.080263 C21.2292911,36.4967033 15.3045176,38.9917263 10.4166269,40.1061109 C5.90965659,41.133198 2.69315785,40.8633019 1.78982919,39.2843068 C1.03857735,37.9740464 1.862874,35.7065403 3.99028895,33.0000367 L3.00174924,32.1957439 C0.438896335,35.457493 -0.339432956,38.1272443 0.692456031,39.9259548 C1.4752214,41.292685 3.17574158,42.0008649 5.74177959,41.9999992 L5.74186393,41.9999992 C7.15550221,41.9999992 8.81452781,41.7850678 10.6970967,41.3554955 C15.7000434,40.2138081 21.7544015,37.6688019 27.7380487,34.1899178 C33.7237468,30.7098413 38.9392289,26.7027598 42.4203912,22.911239 C46.135677,18.8656191 47.4141142,15.5947268 46.1943447,13.467069 C44.9766846,11.3407947 41.5254832,10.8208694 36.1897091,12.0375373 C31.1867625,13.1792247 25.1324044,15.7242309 19.148736,19.2031273 C13.9250799,22.2394698 9.17813903,25.765173 5.75613091,29.1455913 Z M5.7419061,42.4999992 C5.74189204,42.4999992 5.74187798,42.4999992 5.74186393,42.4999992 L5.74194827,42.4999992 C5.74193421,42.4999992 5.74192015,42.4999992 5.7419061,42.4999992 Z" id="Path" stroke="#FFFFFF" stroke-width="0.5" fill="#353535"></path>
                <path d="M34.6541588,41.0142371 L34.980778,39.7734761 C30.4072792,38.5177429 25.0311209,36.1605033 19.8041787,33.1176293 C13.9205252,29.6923959 8.80985809,25.7665679 5.40660966,22.0549138 C2.26798964,18.6333638 0.892061857,15.6891701 1.79738615,14.1092058 C2.39109717,13.0698546 4.01323502,12.587829 6.36965349,12.689039 L6.44416396,11.4075232 C3.28614748,11.2671927 1.48946963,12.0854986 0.69893507,13.4654109 C-0.521965386,15.597514 0.757496162,18.8751709 4.47531258,22.9283183 C7.96020493,26.7282364 13.1800267,30.7433636 19.1709041,34.2304955 C24.4942934,37.3286092 29.9822117,39.7318372 34.6541597,41.0142336 Z" id="Path" stroke="#FFFFFF" stroke-width="0.5" fill="#353535"></path>
                <path d="M10.0683673,13.4642857 C9.47595083,13.3384793 8.90433673,13.2342396 8.35714286,13.1533641 L8.6221475,11.375 C9.20642393,11.4612673 9.81421614,11.5726959 10.4464286,11.7065899 L10.0683673,13.4642857 Z" id="Path" fill="#353535"></path>
                <path d="M12.2435364,12.3789414 L11.9126627,13.6207411 C16.4753762,14.8836854 21.8321577,17.2336608 27.0328739,20.2559149 C32.9328923,23.6841967 38.0577734,27.6135178 41.4704837,31.3284708 C44.6178528,34.753087 45.9976363,37.6999621 45.0896651,39.2815572 C44.3412993,40.5871702 41.989596,41.0063209 38.615421,40.51734 L38.4192822,41.7883353 C39.390445,41.9294499 40.2836438,42 41.0956495,42 C43.6856255,42 45.4120558,41.2871566 46.192678,39.9256577 C47.416953,37.7916942 46.1339399,34.5111384 42.4057266,30.4543228 C38.9110704,26.6509458 33.6766287,22.6321674 27.6689579,19.1418563 C22.3726223,16.0648167 16.903994,13.6686076 12.2435364,12.3789414 Z" id="Path" stroke="#FFFFFF" stroke-width="0.5" fill="#353535"></path>
                <circle id="Oval" fill="#4285F4" cx="23.3303571" cy="26.8125" r="2.66964286"></circle>
                <circle id="Oval" fill="#4285F4" cx="28.6696429" cy="8.00892857" r="1.74107143"></circle>
                <circle id="Oval" fill="#4285F4" cx="36.5625" cy="40.9732143" r="1.74107143"></circle>
                <circle id="Oval" fill="#4285F4" cx="4.75892857" cy="31.2232143" r="1.74107143"></circle>
                <path d="M23.3303571,30.4107143 C21.345942,30.4107143 19.7321429,28.7969152 19.7321429,26.8125 C19.7321429,24.8280848 21.345942,23.2142857 23.3303571,23.2142857 C25.3147723,23.2142857 26.9285714,24.8280848 26.9285714,26.8125 C26.9285714,28.7969152 25.3147723,30.4107143 23.3303571,30.4107143 Z M23.3303571,25.0133929 C22.3381496,25.0133929 21.53125,25.8202924 21.53125,26.8125 C21.53125,27.8047076 22.3381496,28.6116071 23.3303571,28.6116071 C24.3225647,28.6116071 25.1294643,27.8047076 25.1294643,26.8125 C25.1294643,25.8202924 24.3225647,25.0133929 23.3303571,25.0133929 Z" id="Shape" fill="#4285F4"></path>
                <path d="M28.6696429,10.6785714 C27.1977798,10.6785714 26,9.48079167 26,8.00892857 C26,6.53706548 27.1977798,5.33928571 28.6696429,5.33928571 C30.141506,5.33928571 31.3392857,6.53706548 31.3392857,8.00892857 C31.3392857,9.48079167 30.141506,10.6785714 28.6696429,10.6785714 Z M28.6696429,7.11904762 C28.1784286,7.11904762 27.7797619,7.51771429 27.7797619,8.00892857 C27.7797619,8.50014286 28.1784286,8.89880952 28.6696429,8.89880952 C29.1608571,8.89880952 29.5595238,8.50014286 29.5595238,8.00892857 C29.5595238,7.51771429 29.1608571,7.11904762 28.6696429,7.11904762 Z" id="Shape" fill="#4285F4"></path>
                <path d="M36.5625,43.6428571 C35.0906369,43.6428571 33.8928571,42.4450774 33.8928571,40.9732143 C33.8928571,39.5013512 35.0906369,38.3035714 36.5625,38.3035714 C38.0343631,38.3035714 39.2321429,39.5013512 39.2321429,40.9732143 C39.2321429,42.4450774 38.0343631,43.6428571 36.5625,43.6428571 Z M36.5625,40.0833333 C36.0712857,40.0833333 35.672619,40.482 35.672619,40.9732143 C35.672619,41.4644286 36.0712857,41.8630952 36.5625,41.8630952 C37.0537143,41.8630952 37.452381,41.4644286 37.452381,40.9732143 C37.452381,40.482 37.0537143,40.0833333 36.5625,40.0833333 Z" id="Shape" fill="#4285F4"></path>
                <path d="M4.75892857,33.8928571 C3.28706548,33.8928571 2.08928571,32.6950774 2.08928571,31.2232143 C2.08928571,29.7513512 3.28706548,28.5535714 4.75892857,28.5535714 C6.23079167,28.5535714 7.42857143,29.7513512 7.42857143,31.2232143 C7.42857143,32.6950774 6.23079167,33.8928571 4.75892857,33.8928571 Z M4.75892857,30.3333333 C4.26771429,30.3333333 3.86904762,30.732 3.86904762,31.2232143 C3.86904762,31.7144286 4.26771429,32.1130952 4.75892857,32.1130952 C5.25014286,32.1130952 5.64880952,31.7144286 5.64880952,31.2232143 C5.64880952,30.732 5.25014286,30.3333333 4.75892857,30.3333333 Z" id="Shape" fill="#4285F4"></path>
            </g>
        </g>
    </g>
</svg>