<?xml version="1.0" encoding="UTF-8"?>
<svg width="147px" height="143px" viewBox="0 0 147 143" version="1.1" xmlns="http://www.w3.org/2000/svg" xmlns:xlink="http://www.w3.org/1999/xlink">
    <!-- Generator: Sketch 53.1 (72631) - https://sketchapp.com -->
    <title>ICON</title>
    <desc>Created with Sketch.</desc>
    <g id="ICON" stroke="none" stroke-width="1" fill="none" fill-rule="evenodd">
        <path d="M91.5230097,27.9610501 L88.1438199,28.9042663 C91.2778306,40.8618626 93,56.1371054 93,72 C93,107.790164 84.1928099,136.9 74.5,136.9 C64.8071901,136.9 56,107.790164 56,72 C56,36.2098363 64.8071901,7.1 74.5,7.1 C78.1464069,7.1 81.9409692,11.6203481 85.0881669,19.4626793 L88.3408838,18.134112 C84.4939855,8.52180377 79.691485,3.5 74.5,3.5 C61.5507106,3.5 52.5,34.6411163 52.5,72 C52.5,109.358884 61.5507106,140.5 74.5,140.5 C87.4492894,140.5 96.5,109.358884 96.5,72 C96.5,55.8264808 94.7327336,40.2109929 91.5230097,27.9610501 Z" id="Path" stroke="#4285F4" fill="#4285F4" fill-rule="nonzero"></path>
        <path d="M27.6489934,78.2973981 L30.1620847,80.8375325 C38.7987861,72.3099426 50.8351559,63.3997625 64.1167594,55.7059904 C79.2670038,46.9266484 94.5416439,40.5156604 107.13825,37.6533392 C118.696766,35.0236161 126.948201,35.7142189 129.239716,39.6978659 C131.531241,43.6790759 128.005807,51.1889142 119.953597,59.9276075 C111.187291,69.4454315 98.0204169,79.5149695 82.8676262,88.2944614 C67.7173818,97.0738033 52.4427417,103.484791 39.8459577,106.347153 C28.2758107,108.975076 20.0309012,108.285551 17.7446115,104.302485 C15.8349682,100.982963 17.9773576,95.1560797 23.4975858,88.1894068 L20.722664,85.9392024 C14.004349,94.4211146 11.9493306,101.383336 14.6605202,106.093536 C16.7102855,109.660564 21.1473958,111.50224 27.8158524,111.499998 L27.8160206,111.499998 C31.4756124,111.499998 35.7671597,110.945868 40.6348891,109.838828 C53.5598616,106.899134 69.1955917,100.348398 84.6474341,91.3946385 C100.104481,82.437863 113.573632,72.1239103 122.566896,62.3614858 C132.191358,51.9161962 135.511792,43.4491314 132.323855,37.9068976 C129.140283,32.366268 120.173615,31.0199339 106.349497,34.1616234 C93.4245241,37.1013176 77.788794,43.6520534 62.3369093,52.6058378 C48.7964055,60.4502822 36.4957451,69.5642702 27.6489934,78.2973981 Z M27.8161046,112.499998 C27.8160766,112.499998 27.8160486,112.499998 27.8160206,112.499998 L27.8161887,112.499998 C27.8161606,112.499998 27.8161326,112.499998 27.8161046,112.499998 Z" id="Path" stroke="#4285F4" fill="#4285F4" fill-rule="nonzero"></path>
        <path d="M102.473822,108.385615 L103.390366,104.896195 C91.5785295,101.663878 77.6690569,95.5593602 64.1463411,87.6697848 C48.9845087,78.8237585 35.8157324,68.6857526 27.0496516,59.1042689 C18.9963338,50.3056921 15.4707596,42.7451307 17.7608075,38.7397745 C19.2692131,36.0933546 23.4580443,34.8636701 29.563144,35.1486952 L29.7722218,31.5448357 C21.4863386,31.1479484 16.7575561,33.2904499 14.6771498,36.9298704 C11.4868007,42.5135385 14.8087188,51.0421557 24.4352944,61.5600724 C33.4333571,71.3931014 46.9063785,81.7794306 62.3683627,90.7992246 C76.1607346,98.8437702 90.3818158,105.077312 102.473823,108.38561 Z" id="Path" stroke="#4285F4" fill="#4285F4" fill-rule="nonzero"></path>
        <path d="M39.0952381,36 C37.6774892,35.6989247 36.3095238,35.4494624 35,35.255914 L35.6341991,31 C37.0324675,31.2064516 38.487013,31.4731183 40,31.7935484 L39.0952381,36 Z" id="Path" fill="#4285F4" fill-rule="nonzero"></path>
        <path d="M44.5391574,33.615034 L43.6107971,37.1069149 C55.3951325,40.3582291 69.2547798,46.4441307 82.7098443,54.2803584 C97.9138815,63.1342768 111.119313,73.281326 119.909787,82.8713492 C127.985561,91.677818 131.521006,99.2452468 129.224327,103.254625 C127.323953,106.577338 121.2552,107.644488 112.531922,106.356332 L111.98162,109.93017 C114.548818,110.310027 116.907606,110.5 119.049307,110.5 C125.775257,110.5 130.276105,108.637515 132.319583,105.06561 C135.51877,99.4770347 132.187619,90.9408445 122.534135,80.4134223 C113.510884,70.5714662 100.000156,60.1757151 84.4948717,51.1477224 C70.7725897,43.1578954 56.6014377,36.9424572 44.5391574,33.615034 Z" id="Path" stroke="#4285F4" fill="#4285F4" fill-rule="nonzero"></path>
        <ellipse id="Oval" fill="#4285F4" fill-rule="nonzero" cx="73.5" cy="72" rx="6.5" ry="7"></ellipse>
        <g id="Group" transform="translate(81.000000, 15.000000)" fill="#4285F4" fill-rule="nonzero">
            <circle id="Oval" cx="7" cy="7" r="5"></circle>
            <path d="M7,14 C3.14066667,14 0,10.8593333 0,7 C0,3.14066667 3.14066667,0 7,0 C10.8593333,0 14,3.14066667 14,7 C14,10.8593333 10.8593333,14 7,14 Z M7,4.66666667 C5.712,4.66666667 4.66666667,5.712 4.66666667,7 C4.66666667,8.288 5.712,9.33333333 7,9.33333333 C8.288,9.33333333 9.33333333,8.288 9.33333333,7 C9.33333333,5.712 8.288,4.66666667 7,4.66666667 Z" id="Shape"></path>
        </g>
        <circle id="Oval" fill="#4285F4" fill-rule="nonzero" cx="108" cy="108" r="5"></circle>
        <circle id="Oval" fill="#4285F4" fill-rule="nonzero" cx="25" cy="83" r="5"></circle>
        <path d="M73,81 C68.0365,81 64,76.9635 64,72 C64,67.0365 68.0365,63 73,63 C77.9635,63 82,67.0365 82,72 C82,76.9635 77.9635,81 73,81 Z M73,67.5 C70.51825,67.5 68.5,69.51825 68.5,72 C68.5,74.48175 70.51825,76.5 73,76.5 C75.48175,76.5 77.5,74.48175 77.5,72 C77.5,69.51825 75.48175,67.5 73,67.5 Z" id="Shape" fill="#4285F4" fill-rule="nonzero"></path>
        <path d="M108,115 C104.140667,115 101,111.859333 101,108 C101,104.140667 104.140667,101 108,101 C111.859333,101 115,104.140667 115,108 C115,111.859333 111.859333,115 108,115 Z M108,105.666667 C106.712,105.666667 105.666667,106.712 105.666667,108 C105.666667,109.288 106.712,110.333333 108,110.333333 C109.288,110.333333 110.333333,109.288 110.333333,108 C110.333333,106.712 109.288,105.666667 108,105.666667 Z" id="Shape" fill="#4285F4" fill-rule="nonzero"></path>
        <path d="M25,90 C21.1406667,90 18,86.8593333 18,83 C18,79.1406667 21.1406667,76 25,76 C28.8593333,76 32,79.1406667 32,83 C32,86.8593333 28.8593333,90 25,90 Z M25,80.6666667 C23.712,80.6666667 22.6666667,81.712 22.6666667,83 C22.6666667,84.288 23.712,85.3333333 25,85.3333333 C26.288,85.3333333 27.3333333,84.288 27.3333333,83 C27.3333333,81.712 26.288,80.6666667 25,80.6666667 Z" id="Shape" fill="#4285F4" fill-rule="nonzero"></path>
    </g>
</svg>